<svg id="_50" data-name="50" xmlns="http://www.w3.org/2000/svg" viewBox="0 0 512 512"><defs><style>.cls-1{fill:#15be79;}.cls-2{fill:#33db92;}.cls-3{fill:#e52e44;}.cls-4{fill:#fa4654;}.cls-5{fill:#fb626e;}.cls-6{fill:#decee5;}.cls-7{fill:#f4e6f4;}.cls-8{fill:#fff;}.cls-9{fill:#14a36d;}</style></defs><title>50-heart-icons</title><circle class="cls-1" cx="256" cy="256" r="256"/><circle class="cls-2" cx="256" cy="256" r="203.19"/><path class="cls-3" d="M411.78,290,274.21,427.57a25.73,25.73,0,0,1-36.42,0L123.63,313.42,100.23,290A93.6,93.6,0,1,1,232.6,157.63L256,181l23.4-23.41A93.61,93.61,0,0,1,411.78,290Z"/><path class="cls-4" d="M411.78,290,300.33,401.45a25.75,25.75,0,0,1-36.42,0L149.75,287.29l-23.4-23.41a93.63,93.63,0,0,1-11.77-118,93.65,93.65,0,0,1,118,11.78L256,181l23.4-23.41A93.61,93.61,0,0,1,411.78,290Z"/><ellipse class="cls-5" cx="375.17" cy="174.26" rx="23.75" ry="39.26" transform="translate(11.74 371.84) rotate(-53.45)"/><ellipse class="cls-5" cx="412.54" cy="231.59" rx="15" ry="24.8" transform="translate(-29.54 63.1) rotate(-8.45)"/><path class="cls-6" d="M443,335.73a80.88,80.88,0,1,1-80.86-80.87A80.56,80.56,0,0,1,443,335.73Z"/><path class="cls-7" d="M443,335.73a80.56,80.56,0,0,1-12.25,42.82A80.88,80.88,0,0,1,319.31,267.11,80.88,80.88,0,0,1,443,335.73Z"/><ellipse class="cls-8" cx="388.71" cy="291.03" rx="20.9" ry="34.55" transform="translate(-76.59 429.95) rotate(-53.45)"/><ellipse class="cls-8" cx="421.61" cy="341.5" rx="13.21" ry="21.83" transform="translate(-45.58 65.62) rotate(-8.45)"/><path class="cls-9" d="M404.07,332.23H365.61V293.77a3.5,3.5,0,0,0-7,0v38.46H320.16a3.49,3.49,0,0,0-3.5,3.5h0a3.5,3.5,0,0,0,3.5,3.5h38.45v38.45a3.5,3.5,0,0,0,7,0V339.23h38.46a3.5,3.5,0,0,0,3.5-3.5h0A3.5,3.5,0,0,0,404.07,332.23Z"/></svg>